<svg width="166" height="24" viewBox="0 0 166 24" fill="none" xmlns="http://www.w3.org/2000/svg">
<path d="M0.898401 15.2212H1.72282V11.9552H3.22368C4.5977 11.9552 5.66521 11.2048 5.66521 9.8942C5.66521 8.46733 4.5977 7.82259 3.22368 7.82259H0.898401V15.2212ZM1.72282 11.1837V8.59416H3.22368C4.17492 8.59416 4.8408 8.94295 4.8408 9.8942C4.8408 10.8454 4.17492 11.1837 3.22368 11.1837H1.72282ZM11.5063 15.3903C13.3031 15.3903 14.9097 13.9529 14.9097 11.5219C14.9097 9.09092 13.3031 7.65348 11.5063 7.65348C9.7095 7.65348 8.10295 9.09092 8.10295 11.5219C8.10295 13.9529 9.7095 15.3903 11.5063 15.3903ZM8.92737 11.5219C8.92737 9.83078 9.92089 8.42505 11.5063 8.42505C13.0917 8.42505 14.0852 9.83078 14.0852 11.5219C14.0852 13.213 13.0917 14.6187 11.5063 14.6187C9.92089 14.6187 8.92737 13.213 8.92737 11.5219ZM18.9937 15.2212H20.0823L21.3295 9.50313L22.5767 15.2212H23.6654L25.4833 7.82259H24.7117L23.1052 14.3439L21.6889 7.82259H20.9702L19.5539 14.3439L17.9473 7.82259H17.1757L18.9937 15.2212ZM28.2385 15.2212H32.5509V14.4496H29.063V11.765H31.9167V10.9934H29.063V8.59416H32.5509V7.82259H28.2385V15.2212ZM35.5628 15.2212H36.3872V11.9552H38.11C39.3255 11.9552 39.4312 12.5154 39.4841 13.3821L39.5898 15.2212H40.4353L40.3296 13.5407C40.2345 12.0504 39.8963 11.6593 38.6808 11.617C39.6003 11.5219 40.3296 11.0251 40.3296 9.8942C40.3296 8.46733 39.2621 7.82259 37.8881 7.82259H35.5628V15.2212ZM36.3872 11.1837V8.59416H37.8881C38.8393 8.59416 39.5052 8.94295 39.5052 9.8942C39.5052 10.8454 38.8393 11.1837 37.8881 11.1837H36.3872ZM43.5477 15.2212H47.86V14.4496H44.3721V11.765H47.2259V10.9934H44.3721V8.59416H47.86V7.82259H43.5477V15.2212ZM50.872 15.2212H52.9859C55.0997 15.2212 56.3469 14.0586 56.3469 11.5219C56.3469 8.98523 55.0997 7.82259 52.9859 7.82259H50.872V15.2212ZM51.6964 14.4496V8.59416H52.9859C54.677 8.59416 55.5225 9.5137 55.5225 11.5219C55.5225 13.5301 54.677 14.4496 52.9859 14.4496H51.6964ZM63.6936 15.2212H66.0189C67.0758 15.2212 68.4604 14.8407 68.4604 13.1496C68.4604 12.1138 67.784 11.5219 66.9807 11.4162C67.636 11.2788 68.0376 10.5601 68.0376 9.83078C68.0376 8.35106 66.7587 7.82259 65.5961 7.82259H63.6936V15.2212ZM64.4652 14.4496V11.8495H66.0189C66.9701 11.8495 67.636 12.1983 67.636 13.1496C67.636 14.1008 66.9701 14.4496 66.0189 14.4496H64.4652ZM64.4652 11.078V8.59416H65.5961C66.653 8.59416 67.2132 8.98523 67.2132 9.83078C67.2132 10.6763 66.653 11.078 65.5961 11.078H64.4652ZM71.7346 15.2212H72.6013L75.825 7.82259H74.9583L73.1192 12.0398L71.2801 7.82259H70.4134L72.6859 13.0439L71.7346 15.2212Z" fill="#A5A5A5"/>
<path d="M113.974 11.6653C113.952 11.1157 114.04 10.5671 114.235 10.0513C114.43 9.5354 114.727 9.06242 115.109 8.65961C115.491 8.2568 115.951 7.93215 116.462 7.70437C116.973 7.4766 117.525 7.35022 118.086 7.33252H118.26C120.429 7.33252 121.709 8.58235 122.087 10.0446L120.739 10.4863C120.618 9.94134 120.301 9.45723 119.846 9.12226C119.391 8.78728 118.828 8.62375 118.26 8.66151C116.857 8.66151 115.45 9.66553 115.45 11.6903C115.45 13.715 116.823 14.6815 118.277 14.6815C118.848 14.6968 119.408 14.5241 119.866 14.191C120.325 13.8579 120.656 13.3837 120.807 12.8443L122.13 13.2609C121.902 14.0838 121.394 14.8058 120.69 15.308C119.987 15.8101 119.13 16.0623 118.26 16.023C117.144 16.0431 116.064 15.6278 115.26 14.8685C114.455 14.1091 113.991 13.0679 113.97 11.9736C113.966 11.8736 113.97 11.7694 113.974 11.6653Z" fill="#A5A5A5"/>
<path d="M124.753 15.8312H123.358V7.30737H124.753V10.6403C124.955 10.405 125.21 10.2181 125.497 10.0939C125.785 9.96972 126.097 9.9115 126.411 9.92368C127.852 9.92368 128.537 10.936 128.537 12.1984V15.8312H127.193V12.44C127.234 12.1509 127.156 11.8579 126.978 11.6241C126.8 11.3903 126.535 11.2345 126.241 11.1902C126.157 11.1818 126.073 11.1818 125.99 11.1902C125.667 11.1902 125.358 11.3157 125.13 11.5392C124.902 11.7626 124.774 12.0657 124.774 12.3817C124.772 12.4164 124.772 12.4511 124.774 12.4858L124.753 15.8312Z" fill="#A5A5A5"/>
<path d="M131.667 12.5482L133.163 12.3191C133.504 12.2774 133.589 12.1066 133.589 11.9025C133.589 11.4192 133.257 11.0318 132.483 11.0318C132.191 11.0086 131.901 11.0993 131.676 11.2841C131.452 11.469 131.311 11.733 131.284 12.0191V12.0816L130.008 11.8025C130.115 10.8109 131.033 9.92773 132.47 9.92773C134.273 9.92773 134.958 10.9276 134.958 12.0941V14.9396C134.956 15.2479 134.98 15.5558 135.03 15.8603H133.754C133.708 15.6186 133.69 15.3727 133.699 15.127C133.506 15.419 133.237 15.6561 132.921 15.8147C132.604 15.9734 132.251 16.048 131.896 16.0311C131.411 16.0703 130.931 15.9195 130.559 15.6118C130.188 15.3041 129.956 14.8645 129.915 14.3896C129.915 14.3605 129.915 14.3313 129.915 14.3063C129.893 13.2523 130.663 12.6857 131.667 12.5482ZM133.597 13.4689V13.2065L132.071 13.4314C131.863 13.4379 131.667 13.5225 131.522 13.6677C131.377 13.8129 131.295 14.0074 131.292 14.2105C131.294 14.3111 131.316 14.4105 131.357 14.5027C131.399 14.5949 131.458 14.6781 131.533 14.7475C131.607 14.8169 131.695 14.8712 131.791 14.907C131.887 14.9428 131.989 14.9595 132.092 14.9562H132.156C132.33 14.9741 132.506 14.958 132.673 14.9089C132.841 14.8599 132.997 14.7788 133.133 14.6704C133.268 14.5619 133.381 14.4283 133.463 14.2772C133.546 14.126 133.597 13.9604 133.614 13.7897C133.62 13.6823 133.613 13.5746 133.593 13.4689H133.597Z" fill="#A5A5A5"/>
<path d="M137.331 7.19071C137.451 7.18905 137.57 7.21062 137.681 7.25416C137.793 7.29771 137.894 7.36237 137.98 7.44444C138.066 7.52651 138.134 7.62437 138.181 7.73239C138.228 7.84042 138.253 7.95648 138.254 8.07392C138.254 8.24971 138.201 8.42158 138.101 8.56791C138.002 8.71424 137.861 8.8285 137.695 8.89634C137.53 8.96417 137.347 8.98254 137.171 8.94914C136.995 8.91574 136.833 8.83206 136.705 8.70862C136.577 8.58518 136.49 8.4275 136.453 8.25539C136.417 8.08327 136.433 7.90442 136.5 7.74131C136.567 7.5782 136.681 7.43811 136.829 7.33866C136.977 7.23921 137.152 7.18484 137.331 7.18237V7.19071ZM136.651 15.8562V10.0986H138.046V15.8312L136.651 15.8562Z" fill="#A5A5A5"/>
<path d="M141.222 15.831H139.831V10.0984H141.187V10.8608C141.364 10.568 141.618 10.3273 141.923 10.1638C142.227 10.0004 142.571 9.92021 142.918 9.93176C144.347 9.93176 145.044 10.9441 145.044 12.2064V15.831H143.654V12.4397C143.654 11.7357 143.326 11.1649 142.45 11.1649C142.288 11.166 142.128 11.1983 141.979 11.2601C141.83 11.3218 141.695 11.4117 141.581 11.5247C141.467 11.6376 141.377 11.7714 141.316 11.9184C141.255 12.0654 141.225 12.2228 141.226 12.3814C141.226 12.4272 141.226 12.4731 141.226 12.5189L141.222 15.831Z" fill="#A5A5A5"/>
<path d="M146.728 15.8312V7.30737H148.122V15.8312H146.728Z" fill="#A5A5A5"/>
<path d="M150.611 7.19117C150.79 7.19035 150.966 7.2418 151.115 7.33898C151.265 7.43617 151.382 7.57472 151.451 7.73704C151.52 7.89935 151.538 8.07812 151.503 8.25064C151.469 8.42316 151.382 8.58166 151.255 8.70601C151.128 8.83037 150.967 8.91496 150.791 8.94907C150.615 8.98318 150.432 8.96525 150.266 8.89758C150.101 8.8299 149.959 8.71551 149.86 8.56895C149.761 8.42238 149.708 8.25024 149.709 8.07438C149.711 7.84081 149.807 7.61743 149.976 7.45226C150.144 7.2871 150.372 7.19334 150.611 7.19117V7.19117ZM149.926 15.8567V10.0991H151.308V15.8317L149.926 15.8567Z" fill="#A5A5A5"/>
<path d="M154.504 15.8309H153.11V10.0983H154.466V10.8607C154.643 10.5683 154.897 10.3278 155.202 10.1644C155.506 10.0009 155.85 9.92058 156.197 9.93168C157.625 9.93168 158.323 10.944 158.323 12.2064V15.8309H156.928V12.4397C156.968 12.1506 156.891 11.8576 156.713 11.6238C156.535 11.39 156.27 11.2341 155.976 11.1898C155.891 11.1815 155.805 11.1815 155.72 11.1898C155.396 11.1931 155.085 11.3219 154.857 11.5481C154.628 11.7743 154.5 12.0797 154.5 12.398C154.496 12.4465 154.496 12.4953 154.5 12.5438L154.504 15.8309Z" fill="#A5A5A5"/>
<path d="M163.082 12.5192L165.535 15.852H163.835L162.134 13.4899L161.415 14.2314V15.8312H160.033V7.30737H161.415V12.415L163.66 10.0987H165.51L163.082 12.5192Z" fill="#A5A5A5"/>
<path d="M97.4625 4.99932L103.492 8.39052V15.2063L97.4795 18.6183L91.4543 15.2354V8.42385L97.4625 4.99932ZM97.4625 0L95.2514 1.24983L89.2304 4.67436L87.0193 5.92419V17.7434L89.2304 18.9932L95.2599 22.3844L97.471 23.6343L99.6821 22.3844L105.69 18.9682L107.902 17.7184V5.88253L105.69 4.6327L99.6651 1.24983L97.454 0H97.4625Z" fill="#A5A5A5"/>
</svg>
